<svg width="210" height="180" viewBox="0 0 210 180" fill="none" xmlns="http://www.w3.org/2000/svg">
<path fill-rule="evenodd" clip-rule="evenodd" d="M22.5 3.75H206.25V26.25H22.5V3.75Z" fill="#3E4F59"/>
<path fill-rule="evenodd" clip-rule="evenodd" d="M22.5 26.25H206.25V176.25H22.5V26.25Z" fill="#ACBEC2"/>
<path fill-rule="evenodd" clip-rule="evenodd" d="M22.5 26.25V176.25H134.136C155.793 156.705 173.906 132.151 186.296 105.54C198.686 78.93 204.827 51.3963 203.979 26.25H22.5Z" fill="#E8EDEE"/>
<path fill-rule="evenodd" clip-rule="evenodd" d="M30 0C23.8312 0 18.75 5.08125 18.75 11.25V161.25C18.75 163.321 20.429 165 22.5 165C24.5711 165 26.25 163.321 26.25 161.25V11.25C26.25 9.13451 27.8845 7.5 30 7.5H198.75C200.866 7.5 202.5 9.13451 202.5 11.25V22.5H45C42.9289 22.5 41.25 24.1789 41.25 26.25C41.25 28.3211 42.9289 30 45 30H202.5V168.75C202.5 170.865 200.866 172.5 198.75 172.5H15C12.9289 172.5 11.25 174.179 11.25 176.25C11.25 178.321 12.9289 180 15 180H198.75C204.919 180 210 174.919 210 168.75C210 116.25 210 63.75 210 11.25C210 5.08125 204.919 0 198.75 0H30Z" fill="black"/>
<path fill-rule="evenodd" clip-rule="evenodd" d="M191.25 11.25C189.179 11.25 187.5 12.9289 187.5 15C187.5 17.0711 189.179 18.75 191.25 18.75C193.321 18.75 195 17.0711 195 15C195 12.9289 193.321 11.25 191.25 11.25Z" fill="#ED7161"/>
<path fill-rule="evenodd" clip-rule="evenodd" d="M176.25 11.25C174.179 11.25 172.5 12.9289 172.5 15C172.5 17.0711 174.179 18.75 176.25 18.75C178.321 18.75 180 17.0711 180 15C180 12.9289 178.321 11.25 176.25 11.25Z" fill="#ECBA16"/>
<path fill-rule="evenodd" clip-rule="evenodd" d="M161.25 11.25C159.179 11.25 157.5 12.9289 157.5 15C157.5 17.0711 159.179 18.75 161.25 18.75C163.321 18.75 165 17.0711 165 15C165 12.9289 163.321 11.25 161.25 11.25Z" fill="#42B05C"/>
<path fill-rule="evenodd" clip-rule="evenodd" d="M3.75 172.5C2.75544 172.5 1.80155 172.895 1.09829 173.598C0.395028 174.302 0 175.255 0 176.25C0 177.245 0.395028 178.198 1.09829 178.902C1.80155 179.605 2.75544 180 3.75 180C4.74456 180 5.69833 179.605 6.4016 178.902C7.10486 178.198 7.5 177.245 7.5 176.25C7.5 175.255 7.10486 174.302 6.4016 173.598C5.69833 172.895 4.74456 172.5 3.75 172.5Z" fill="black"/>
<path fill-rule="evenodd" clip-rule="evenodd" d="M33.75 22.5C31.6789 22.5 30 24.1789 30 26.25C30 28.3211 31.6789 30 33.75 30C35.8211 30 37.5 28.3211 37.5 26.25C37.5 24.1789 35.8211 22.5 33.75 22.5Z" fill="black"/>
<path d="M161.25 60H67.5C63.3579 60 60 63.3579 60 67.5V135C60 139.142 63.3579 142.5 67.5 142.5H161.25C165.392 142.5 168.75 139.142 168.75 135V67.5C168.75 63.3579 165.392 60 161.25 60Z" fill="#0075D3"/>
<path fill-rule="evenodd" clip-rule="evenodd" d="M67.5 60C63.345 60 60 63.345 60 67.5V135C60 139.155 63.345 142.5 67.5 142.5H140.94C152.151 131.388 158.317 117.249 158.328 102.627C158.323 86.7239 151.039 71.4427 138.01 60H67.5Z" fill="#0588E2"/>
<path d="M168.75 60H60V82.5H168.75V60Z" fill="#FE73C5"/>
<path fill-rule="evenodd" clip-rule="evenodd" d="M60 60V82.5H152.212C152.47 81.256 152.607 80.0038 152.622 78.75C152.621 72.0123 149.103 65.4481 142.573 60H60Z" fill="#FE93D3"/>
<path fill-rule="evenodd" clip-rule="evenodd" d="M67.5 56.25C61.3324 56.25 56.25 61.3324 56.25 67.5C56.25 74.895 56.25 82.29 56.25 89.6851C56.25 91.7561 57.9289 93.4351 60 93.4351C62.0711 93.4351 63.75 91.7561 63.75 89.6851V86.25H165V108.75C165 110.821 166.679 112.5 168.75 112.5C170.821 112.5 172.5 110.821 172.5 108.75C172.5 95 172.5 81.25 172.5 67.5C172.5 61.3324 167.418 56.25 161.25 56.25H67.5ZM67.5 63.75H161.25C163.392 63.75 165 65.3576 165 67.5V78.75H63.75V67.5C63.75 65.3576 65.3576 63.75 67.5 63.75ZM60 101.25C57.9289 101.25 56.25 102.929 56.25 105V135C56.25 141.168 61.3324 146.25 67.5 146.25H161.25C167.418 146.25 172.5 141.168 172.5 135V123.75C172.5 121.679 170.821 120 168.75 120C166.679 120 165 121.679 165 123.75V135C165 137.142 163.392 138.75 161.25 138.75H67.5C65.3576 138.75 63.75 137.142 63.75 135V105C63.75 102.929 62.0711 101.25 60 101.25Z" fill="black"/>
<path fill-rule="evenodd" clip-rule="evenodd" d="M82.2583 93.7573C80.5638 93.8672 79.1547 95.1022 78.8233 96.7676L75.0733 115.518C74.6117 117.837 76.3854 119.999 78.75 120H90V127.5C90 129.571 91.679 131.25 93.75 131.25C95.8211 131.25 97.5 129.571 97.5 127.5C97.5 121.25 97.5 115 97.5 108.75C97.5 106.679 95.8211 105 93.75 105C91.679 105 90 106.679 90 108.75V112.5H83.3203L86.1768 98.2324C86.5807 96.2019 85.2627 94.2283 83.2325 93.8233C82.9122 93.7588 82.5845 93.7367 82.2583 93.7573Z" fill="black"/>
<path fill-rule="evenodd" clip-rule="evenodd" d="M116.25 97.5C120.405 97.5 123.75 100.845 123.75 105V116.25C123.75 120.405 120.405 123.75 116.25 123.75C112.095 123.75 108.75 120.405 108.75 116.25V105C108.75 100.845 112.095 97.5 116.25 97.5Z" fill="#FFC343"/>
<path fill-rule="evenodd" clip-rule="evenodd" d="M116.25 93.75C110.082 93.75 105 98.8323 105 105V116.25C105 122.418 110.082 127.5 116.25 127.5C122.418 127.5 127.5 122.418 127.5 116.25V105C127.5 104.005 127.105 103.052 126.402 102.348C125.698 101.645 124.745 101.25 123.75 101.25C122.755 101.25 121.802 101.645 121.098 102.348C120.395 103.052 120 104.005 120 105V116.25C120 118.392 118.392 120 116.25 120C114.108 120 112.5 118.392 112.5 116.25V105C112.5 102.858 114.108 101.25 116.25 101.25C117.245 101.25 118.198 100.855 118.902 100.152C119.605 99.4484 120 98.4946 120 97.5C120 96.5054 119.605 95.5516 118.902 94.8483C118.198 94.1451 117.245 93.75 116.25 93.75Z" fill="black"/>
<path fill-rule="evenodd" clip-rule="evenodd" d="M142.258 93.7573C140.564 93.8672 139.155 95.1022 138.823 96.7676L135.073 115.518C134.612 117.837 136.385 119.999 138.75 120H150V127.5C150 129.571 151.679 131.25 153.75 131.25C155.821 131.25 157.5 129.571 157.5 127.5C157.5 121.25 157.5 115 157.5 108.75C157.5 106.679 155.821 105 153.75 105C151.679 105 150 106.679 150 108.75V112.5H143.32L146.177 98.2324C146.581 96.2019 145.263 94.2283 143.232 93.8233C142.912 93.7588 142.585 93.7367 142.258 93.7573Z" fill="black"/>
</svg>
