<svg width="120" height="120" viewBox="0 0 120 120" fill="none" xmlns="http://www.w3.org/2000/svg">
<g clip-path="url(#clip0_63_153)">
<path fill-rule="evenodd" clip-rule="evenodd" d="M56.1975 0.112507C55.815 0.157507 54.51 0.292507 53.3025 0.412507C39.255 1.81501 25.1025 9.06001 15.5325 19.755C4.94998 31.5825 -0.427524 46.26 0.0674761 61.8975C0.929976 88.905 19.4925 111.773 45.825 118.283C61.2675 122.1 78.2475 119.378 91.7025 110.933C105.127 102.495 114.525 89.4975 118.282 74.1525C119.572 68.895 119.872 66.2175 119.872 60C119.872 53.7825 119.572 51.105 118.282 45.8475C112.342 21.585 92.3625 3.73501 67.5 0.480007C65.37 0.202507 57.6225 -0.0449934 56.1975 0.112507ZM66.3975 11.7225C74.7525 12.8025 82.575 16.02 89.58 21.255C92.0475 23.1 96.9 27.9525 98.745 30.42C102.952 36.0525 106.065 42.675 107.475 49.0125C109.08 56.25 109.08 63.75 107.475 70.9875C104.37 84.945 94.5375 97.335 81.5025 103.71C76.7925 106.013 71.9325 107.52 66.6 108.33C63.42 108.818 56.58 108.818 53.4 108.33C38.79 106.11 26.46 98.1375 18.6975 85.8825C17.0925 83.355 14.9925 78.945 13.9425 75.8925C12.135 70.665 11.355 65.8575 11.355 60C11.355 52.2075 12.8625 45.5625 16.2 38.7C18.75 33.465 21.345 29.85 25.5975 25.5975C29.85 21.345 33.465 18.75 38.7 16.2C47.3475 11.9925 56.7525 10.4775 66.3975 11.7225ZM57.795 32.175C56.115 32.7225 55.1625 33.6825 54.6975 35.2875C54.4275 36.2025 54.3975 38.295 54.4425 51.12C54.5025 65.895 54.5025 65.9025 54.9375 66.72C55.485 67.7475 56.535 68.6775 57.5325 69.03C58.5225 69.375 61.4775 69.375 62.4675 69.03C63.465 68.6775 64.515 67.7475 65.0625 66.72C65.4975 65.9025 65.4975 65.895 65.5575 51.12C65.6175 34.98 65.6175 34.965 64.47 33.6075C63.54 32.4975 62.5425 32.13 60.3 32.07C59.1975 32.04 58.0725 32.085 57.795 32.175ZM58.395 78.975C56.9775 79.44 55.575 80.6475 54.8925 81.99C54.3675 83.04 54.2775 84.9375 54.705 86.2125C55.41 88.35 57.7275 90 60 90C62.2725 90 64.59 88.35 65.295 86.2125C65.7225 84.9375 65.6325 83.04 65.1075 81.99C64.62 81.03 63.45 79.845 62.4975 79.35C61.6275 78.9 59.28 78.6825 58.395 78.975Z" fill="black"/>
</g>
<defs>
<clipPath id="clip0_63_153">
<rect width="120" height="120" fill="white"/>
</clipPath>
</defs>
</svg>
