<svg width="20" height="20" viewBox="0 0 20 20" fill="none" xmlns="http://www.w3.org/2000/svg">
<path d="M19.6843 8.38719L10.5176 0.205318C10.2107 -0.0684393 9.76951 -0.0684393 9.46261 0.205318L0.295965 8.38719C-0.0519847 8.70746 -0.0999325 9.27309 0.188278 9.65754C0.476488 10.042 0.994177 10.103 1.35096 9.79448L2.49013 8.7781V19.0909C2.49013 19.593 2.86322 20 3.32346 20H8.32345V14.5454H11.6568V20H16.6568C17.117 20 17.4901 19.593 17.4901 19.0909V8.7781L18.6293 9.79448C18.8591 10.0061 19.1757 10.0661 19.4575 9.95157C19.7394 9.83704 19.9428 9.56571 19.9898 9.24163C20.0367 8.91754 19.92 8.59099 19.6843 8.38719Z" fill="black"/>
</svg>
