<svg width="11" height="10" viewBox="0 0 11 10" fill="none" xmlns="http://www.w3.org/2000/svg">
<path d="M4.52514 0.910653C4.8254 -0.00874388 6.12605 -0.00874579 6.42632 0.910651L6.92893 2.44964C7.06326 2.86093 7.44685 3.13919 7.87952 3.13919H9.49508C10.465 3.13919 10.867 4.38141 10.0809 4.94963L8.78271 5.88799C8.43043 6.14263 8.28299 6.59569 8.41794 7.00889L8.91588 8.53355C9.21647 9.45396 8.16419 10.2217 7.37948 9.65445L6.06154 8.70181C5.71189 8.44907 5.23957 8.44908 4.88991 8.70181L3.57198 9.65445C2.78726 10.2217 1.73498 9.45396 2.03558 8.53356L2.53352 7.00889C2.66846 6.59569 2.52103 6.14263 2.16874 5.88799L0.870561 4.94963C0.0844564 4.38141 0.486409 3.13919 1.45637 3.13919H3.07193C3.5046 3.13919 3.8882 2.86093 4.02252 2.44964L4.52514 0.910653Z" fill="#1E00FF"/>
</svg>
